<?xml version="1.0" standalone="no"?>
<!DOCTYPE svg PUBLIC "-//W3C//DTD SVG 1.1//EN" "http://www.w3.org/Graphics/SVG/1.1/DTD/svg11.dtd">
<!--Generator: Xara Designer (www.xara.com), SVG filter version: 6.0.0.4-->
<svg stroke-width="0.501" stroke-linejoin="bevel" fill-rule="evenodd" xmlns:xlink="http://www.w3.org/1999/xlink" xmlns="http://www.w3.org/2000/svg" version="1.1" overflow="visible" width="107.252pt" height="107.252pt" viewBox="0 0 107.252 107.252">
 <defs>
	</defs>
 <g id="Document" fill="none" stroke="black" font-family="Times New Roman" font-size="16" transform="scale(1 -1)">
  <g id="Spread" transform="translate(0 -107.252)">
   <g id="Layer 1">
    <path d="M 28.915,6.039 C 2.647,19.68 -7.602,52.069 6.039,78.337 C 19.68,104.605 52.069,114.854 78.337,101.213 C 104.605,87.572 114.854,55.183 101.213,28.915 C 87.572,2.647 55.183,-7.602 28.915,6.039 Z M 31.813,35.867 L 37.319,36.124 L 36.694,49.468 L 52.83,50.223 L 53.455,36.88 L 53.508,36.883 L 59.014,37.14 L 67.732,37.548 C 72.18,37.757 75.274,38.914 77.015,41.022 C 78.488,42.837 79.172,44.88 79.066,47.15 C 78.97,49.203 78.29,50.894 77.028,52.221 C 75.766,53.55 74.114,54.384 72.071,54.725 C 72.62,55 73,55.197 73.213,55.316 C 73.425,55.435 73.817,55.726 74.387,56.189 C 75.947,57.509 76.667,59.444 76.547,61.995 C 76.448,64.11 75.613,65.972 74.041,67.582 C 73.221,68.448 71.998,69.107 70.371,69.561 C 68.745,70.015 66.827,70.19 64.619,70.087 L 51.928,69.493 L 52.59,55.356 L 36.454,54.6 L 35.792,68.737 L 30.287,68.479 L 31.813,35.867 Z M 58.776,42.226 L 58.359,51.137 L 66.237,51.506 C 70.872,51.723 73.256,50.385 73.392,47.492 C 73.475,45.72 72.995,44.489 71.952,43.801 C 70.908,43.113 69.376,42.722 67.354,42.628 L 58.776,42.226 Z M 58.121,56.222 L 57.725,64.667 L 64.717,64.995 C 66.739,65.089 68.248,64.817 69.244,64.178 C 70.24,63.539 70.775,62.441 70.848,60.886 C 70.975,58.18 69.047,56.734 65.066,56.548 L 58.121,56.222 Z" stroke="none" fill="#15af67" stroke-width="4.261" stroke-linejoin="round" stroke-linecap="round" marker-start="none" marker-end="none" stroke-miterlimit="79.8403193612775"/>
   </g>
  </g>
 </g>
</svg>
